<svg xmlns="http://www.w3.org/2000/svg" viewBox="0 0 200 200" role="img">
<defs>
  <filter id="grain" x="-20%" y="-20%" width="140%" height="140%">
    <feTurbulence type="fractalNoise" baseFrequency="0.9" numOctaves="2" seed="7" result="noise"/>
    <feDisplacementMap in="SourceGraphic" in2="noise" scale="1.5"/>
  </filter>
  <linearGradient id="wood" x1="0" y1="0" x2="1" y2="1">
    <stop offset="0" stop-color="#D99A2B"/>
    <stop offset="0.55" stop-color="#B35435"/>
    <stop offset="1" stop-color="#5C3A21"/>
  </linearGradient>
  <linearGradient id="metal" x1="0" y1="0" x2="1" y2="1">
    <stop offset="0" stop-color="#F4EFE6"/>
    <stop offset="0.55" stop-color="#6B7280"/>
    <stop offset="1" stop-color="#5C3A21"/>
  </linearGradient>
  <radialGradient id="ember" cx="50%" cy="50%" r="55%">
    <stop offset="0" stop-color="#FF6B1A"/>
    <stop offset="0.55" stop-color="#D99A2B"/>
    <stop offset="1" stop-color="#B35435"/>
  </radialGradient>
  <radialGradient id="paper" cx="45%" cy="35%" r="75%">
    <stop offset="0" stop-color="#F4EFE6"/>
    <stop offset="1" stop-color="#D99A2B"/>
  </radialGradient>
</defs>
<g filter="url(#grain)" stroke="#5C3A21" stroke-width="3" stroke-linecap="round" stroke-linejoin="round">

  <path d="M42 91 C74 75 125 73 163 89 L151 130 C110 145 68 141 37 126 Z" fill="#F4EFE6"/>
  <path d="M52 95 L153 95 M45 116 L158 114 M63 80 L55 132 M100 76 L96 139 M139 81 L129 134" fill="none"/>
  <circle cx="65" cy="142" r="18" fill="#D99A2B"/>
  <circle cx="136" cy="142" r="18" fill="#D99A2B"/>
  <path d="M35 127 C59 153 143 154 166 127" fill="none"/>

</g>
</svg>
