<svg xmlns="http://www.w3.org/2000/svg" viewBox="0 0 200 200" role="img"><title>Marteau enluminé</title>
  <defs>
    <filter id="grain" x="-15%" y="-15%" width="130%" height="130%">
      <feTurbulence type="fractalNoise" baseFrequency="0.025" numOctaves="3" seed="52"/>
      <feDisplacementMap in="SourceGraphic" scale="1.8"/>
    </filter>
    <filter id="shadow" x="-25%" y="-25%" width="150%" height="150%">
      <feDropShadow dx="2" dy="4" stdDeviation="2.5" flood-color="#6B3A2A" flood-opacity="0.38"/>
    </filter>
    <radialGradient id="fireGlow" cx="50%" cy="55%" r="55%">
      <stop offset="0" stop-color="#D4A017"/>
      <stop offset="0.52" stop-color="#C0392B"/>
      <stop offset="1" stop-color="#1A1A1A"/>
    </radialGradient>
    <linearGradient id="steel" x1="0" y1="0" x2="1" y2="1">
      <stop offset="0" stop-color="#F5EDD6"/>
      <stop offset="0.45" stop-color="#5A6472"/>
      <stop offset="1" stop-color="#1A1A1A"/>
    </linearGradient>
    <linearGradient id="wood" x1="0" y1="0" x2="1" y2="1">
      <stop offset="0" stop-color="#D4A017"/>
      <stop offset="0.35" stop-color="#6B3A2A"/>
      <stop offset="1" stop-color="#1A1A1A"/>
    </linearGradient>
    <linearGradient id="goldRed" x1="0" y1="0" x2="1" y2="1">
      <stop offset="0" stop-color="#D4A017"/>
      <stop offset="0.65" stop-color="#C0392B"/>
      <stop offset="1" stop-color="#6B3A2A"/>
    </linearGradient>
  </defs>


  <g filter="url(#shadow)" stroke="#1A1A1A" stroke-width="3.4" stroke-linecap="round" stroke-linejoin="round">
    <path filter="url(#grain)" d="M67 76 C75 67 86 69 92 79 L144 151 C150 160 147 170 139 174 C130 179 121 174 116 165 L64 92 C60 86 61 80 67 76 Z" fill="url(#wood)"/>
    <path d="M45 50 L106 28 C119 32 129 44 132 58 L70 83 C58 79 49 68 45 50 Z" fill="url(#steel)"/>
    <path d="M73 41 C88 47 98 59 104 73" fill="none" stroke="#D4A017" stroke-width="3"/>
    <path d="M84 91 L129 157" fill="none" stroke="#D4A017" stroke-width="2" opacity="0.7"/>
  </g>
</svg>
