<svg xmlns="http://www.w3.org/2000/svg" viewBox="0 0 200 200" role="img"><title>Métal liquide</title><defs><filter id="grain"><feTurbulence type="fractalNoise" baseFrequency="0.035" numOctaves="2" seed="9"/><feDisplacementMap in="SourceGraphic" scale="1.6"/></filter><radialGradient id="fire" cx="50%" cy="55%" r="55%"><stop offset="0" stop-color="#F4EFE6"/><stop offset=".38" stop-color="#D99A2B"/><stop offset=".72" stop-color="#FF6B1A"/><stop offset="1" stop-color="#B35435"/></radialGradient></defs><g filter="url(#grain)" stroke="#5C3A21" stroke-width="2.7" stroke-linecap="round" stroke-linejoin="round"><path d="M38 124 C58 94 82 91 103 112 C124 134 152 96 166 128 C174 147 152 161 111 158 C70 156 25 151 38 124 Z" fill="url(#fire)" opacity=".95"/><path d="M54 130 C82 113 92 139 120 124 C137 115 146 121 155 132" fill="none" stroke="#F4EFE6" opacity=".75"/><ellipse cx="104" cy="142" rx="62" ry="14" fill="#FF6B1A" opacity=".55" stroke="none"/><path d="M70 75 C80 55 100 61 94 82 C89 100 64 96 70 75 Z" fill="#D99A2B" opacity=".8"/></g></svg>
